<svg xmlns="http://www.w3.org/2000/svg" viewBox="0 0 495.77 495.77"><path d="M246.132 378.252l26.506-26.512-22.947-22.936-26.493 26.496c-17.68 17.682-48.506 17.682-66.17 0L73.01 271.307c-1.23-1.233-1.936-2.957-1.936-4.73 0-1.775.706-3.496 1.973-4.763l54.826-54.823-22.947-22.937-54.796 54.815c-7.324 7.272-11.492 17.384-11.492 27.708 0 10.323 4.167 20.438 11.456 27.69l83.983 83.985c14.97 14.968 34.866 23.212 56.024 23.212 21.162 0 41.077-8.243 56.032-23.21zM445.677 123.335l-112.33-112.33c-14.693-14.66-40.633-14.692-55.37.016l-138.65 138.644 11.46 11.443 144.785 144.77 11.474 11.455 138.63-138.627c7.385-7.37 11.454-17.222 11.454-27.68.002-10.467-4.067-20.304-11.453-27.69zM233.883 418.205c0 8.965 7.256 16.22 16.218 16.22h83.064c8.966 0 16.222-7.255 16.222-16.22 0-8.96-7.256-16.217-16.222-16.217H250.1c-8.96 0-16.217 7.256-16.217 16.217zM398.794 463.332h-237.73c-8.948 0-16.217 7.254-16.217 16.217 0 8.977 7.27 16.22 16.217 16.22h237.73c8.96 0 16.217-7.242 16.217-16.22.002-8.964-7.254-16.218-16.216-16.218z"/></svg>