<svg xmlns="http://www.w3.org/2000/svg" viewBox="0 0 31.592 31.592"><path d="M19.812 20.062c-.037.07-.11.137-.11.2v6.392c0 1.056-.89 1.875-1.94 1.875H4.393c-1.055 0-1.93-.82-1.93-1.876V9.537c0-1.054.875-1.938 1.93-1.938h13.364c.385 0 .74.127 1.04.322l2.146-2.377c-.377-.224-.814-.34-1.287-.34H2.393C1.063 5.205 0 6.27 0 7.603v20.95c0 1.388 1.107 2.51 2.495 2.51h17.16c1.39 0 2.507-1.122 2.507-2.51v-11.07l-2.07 2.32c-.09.1-.176.187-.28.26z"/><path d="M5.646 10.88c-.68 0-1.232.517-1.232 1.2 0 .678.552 1.195 1.232 1.195h8.35l2.186-2.394H5.646zM12.62 15.055c.01-.042.025-.07.04-.138H5.647c-.68 0-1.232.55-1.232 1.23 0 .677.552 1.23 1.232 1.23h6.308l.665-2.322zM9.9 19.022H5.647c-.68 0-1.23.55-1.23 1.23 0 .677.55 1.23 1.23 1.23h4.256c.545 0 1.005-.36 1.168-.85.01-.13.03-.27.064-.395-.003-.617-.458-1.12-1.053-1.205-.058-.007-.118-.01-.18-.01zM23.08 5.31l-7.905 8.81-.535.597 4.278 3.836.535-.596 7.902-8.81.64-.71-4.28-3.837-.635.71zm-.435 3.984l-5.098 5.68c-.064.072-.152.115-.25.12-.096.006-.187-.027-.26-.09l-.254-.228c-.146-.133-.158-.36-.025-.51l5.098-5.68c.062-.072.152-.115.25-.12.094-.005.188.028.26.09l.25.23c.15.132.16.36.03.508zm1.48-2.7l.25.227c.147.133.16.36.03.507 0 0-.003 0-.003.002l-.44.493c-.02.02-.038.037-.06.052-.057.04-.12.064-.19.068-.095.005-.187-.028-.26-.092l-.253-.225c-.07-.063-.114-.153-.12-.25-.006-.094.027-.188.093-.26l.442-.493c.133-.146.364-.16.51-.027zM24.518 3.707l-.39.432 4.276 3.838.39-.435.664-.738-4.278-3.838M31.178 3.023L28.752.848c-.245-.22-.566-.334-.896-.316s-.64.166-.858.41l-1.43 1.595 4.275 3.837 1.43-1.594c.46-.51.418-1.298-.095-1.757zm-1.42 1.752L27.164 2.45l.75-.834 2.59 2.325-.748.835zM13.487 21.14l4.917-2.016-4.274-3.835-1.473 5.106c-.065.23.005.476.182.633.176.157.427.2.647.11zm1.032-4.488l2.484 2.23-1.932.79-1.13-1.013.577-2.008z"/></svg>